<?xml version="1.0" encoding="UTF-8" standalone="no"?>
<svg
   xmlns:dc="http://purl.org/dc/elements/1.1/"
   xmlns:cc="http://creativecommons.org/ns#"
   xmlns:rdf="http://www.w3.org/1999/02/22-rdf-syntax-ns#"
   xmlns:svg="http://www.w3.org/2000/svg"
   xmlns="http://www.w3.org/2000/svg"
   xmlns:sodipodi="http://sodipodi.sourceforge.net/DTD/sodipodi-0.dtd"
   xmlns:inkscape="http://www.inkscape.org/namespaces/inkscape"
   width="179.76965"
   height="50"
   viewBox="0 0 143.81572 39.999997"
   version="1.1"
   id="svg2"
   inkscape:version="0.48.4 r9939"
   sodipodi:docname="asterisell5_3.svg"
   inkscape:export-filename="/home/zanibonim/Downloads/logo/asterisell.png"
   inkscape:export-xdpi="72.821472"
   inkscape:export-ydpi="72.821472">
  <metadata
     id="metadata16">
    <rdf:RDF>
      <cc:Work
         rdf:about="">
        <dc:format>image/svg+xml</dc:format>
        <dc:type
           rdf:resource="http://purl.org/dc/dcmitype/StillImage" />
        <dc:title />
      </cc:Work>
    </rdf:RDF>
  </metadata>
  <defs
     id="defs14" />
  <sodipodi:namedview
     pagecolor="#ffffff"
     bordercolor="#666666"
     borderopacity="1"
     objecttolerance="10"
     gridtolerance="10"
     guidetolerance="10"
     inkscape:pageopacity="0"
     inkscape:pageshadow="2"
     inkscape:window-width="1366"
     inkscape:window-height="716"
     id="namedview12"
     showgrid="false"
     showguides="true"
     inkscape:guide-bbox="true"
     fit-margin-top="0"
     fit-margin-left="0"
     fit-margin-right="0"
     fit-margin-bottom="0"
     inkscape:zoom="1.5104"
     inkscape:cx="-137.51501"
     inkscape:cy="-18.525422"
     inkscape:window-x="0"
     inkscape:window-y="0"
     inkscape:window-maximized="1"
     inkscape:current-layer="surface4" />
  <g
     id="surface2"
     transform="matrix(0.48485522,0,0,0.48485522,-49.576446,-41.005765)">
    <path
       style="fill:#87bd66;fill-opacity:1;fill-rule:evenodd;stroke:none"
       d="m 150.64844,157.69922 c -21.66407,-4.69922 -33.69922,-10.86719 -36.09766,-18.5 -2.43359,-7.59766 4.84766,-15.19922 21.84766,-22.80078 -22.76563,8 -33.86328,16.28515 -33.29688,24.85156 0.59766,8.53516 12.78125,15.41797 36.54688,20.64844 16.23437,3.23437 34.55078,4.95312 54.95312,5.15234 20.4336,0.19922 40.76563,-1 61,-3.60156 20.23047,-2.63281 38.21485,-6.51563 53.94922,-11.64844 4.23438,-1.40234 8.06641,-2.85156 11.5,-4.35156 -0.16797,0.0664 -0.33594,0.11719 -0.5,0.15234 -15.73437,5.16406 -33.71875,9.04688 -53.94922,11.64844 -20.26953,2.60156 -40.60156,3.81641 -61,3.64844 -20.40234,-0.19922 -38.71875,-1.9336 -54.95312,-5.19922"
       id="path5"
       inkscape:connector-curvature="0" />
    <path
       style="fill:#87bd66;fill-opacity:1;fill-rule:evenodd;stroke:none"
       d="M 348.85156,91.648438 C 326.61719,87.214844 301.5,84.867188 273.5,84.601562 245.53516,84.332031 217.68359,85.984375 189.94922,89.550781 162.18359,93.117188 137.53516,98.417969 116,105.44922 c -5,1.69922 -9.58203,3.41797 -13.75,5.15234 0.89844,-0.33593 1.81641,-0.65234 2.75,-0.95312 21.53516,-7.03125 46.18359,-12.347659 73.94922,-15.949221 27.73437,-3.566407 55.60156,-5.214844 83.60156,-4.949219 27.96484,0.265625 53.06641,2.617188 75.30078,7.050781 30.03125,6.531249 46.53125,15.117189 49.5,25.749999 3,10.63281 -7.65234,21.19922 -31.95312,31.69922 30.10156,-10.89844 44.5664,-22.13281 43.40234,-33.69922 -1.16797,-11.5664 -17.81641,-20.867186 -49.94922,-27.902342"
       id="path7"
       inkscape:connector-curvature="0" />
  </g>
  <g
     id="surface4"
     transform="matrix(0.46756304,0,0,0.48485522,-53.502377,-133.11616)">
    <text
       xml:space="preserve"
       style="font-size:54.95154953px;font-style:normal;font-variant:normal;font-weight:normal;font-stretch:normal;text-align:start;line-height:125%;letter-spacing:0px;word-spacing:0px;writing-mode:lr-tb;text-anchor:start;fill:#000000;fill-opacity:1;stroke:none;font-family:Abyssinica SIL;-inkscape-font-specification:Abyssinica SIL"
       x="136.2041"
       y="351.54446"
       id="text2988"
       sodipodi:linespacing="125%"
       transform="scale(1.0608449,0.94264487)"><tspan
         sodipodi:role="line"
         id="tspan2990"
         x="136.2041"
         y="351.54446"><tspan
   style="font-size:54.95154953px;font-style:normal;font-variant:normal;font-weight:normal;font-stretch:normal;text-align:start;line-height:125%;writing-mode:lr-tb;text-anchor:start;fill:#0000ff;fill-opacity:1;font-family:Abyssinica SIL;-inkscape-font-specification:Abyssinica SIL"
   id="tspan2992">Asteri</tspan>sell</tspan></text>
  </g>
</svg>
